<?xml version="1.0" encoding="utf-8"?>
<!-- Generator: Adobe Illustrator 24.3.0, SVG Export Plug-In . SVG Version: 6.00 Build 0)  -->
<svg version="1.1" id="Layer_1" xmlns="http://www.w3.org/2000/svg" xmlns:xlink="http://www.w3.org/1999/xlink" x="0px" y="0px"
	 viewBox="0 0 1200 630" style="enable-background:new 0 0 1200 630;" xml:space="preserve">
<style type="text/css">
	.st0{fill:#FFFFFF;}
	.st1{fill:#2B79C2;}
	.st2{fill:#3B4652;}
</style>
<g>
	<rect y="0" class="st0" width="1200" height="630"/>
	<g>
		<path class="st1" d="M800.2,298.6v-22.4c0-8.4-6.6-15-15-15h-34.8c-3.8-15-9.7-29.3-17.6-42.3l24.6-24.6c5.9-5.9,5.9-15.4,0-21.3
			l-31.6-31.6c-5.9-5.9-15.4-5.9-21.3,0L679.9,166c-13-7.9-27.1-13.8-42.3-17.6v-34.8c0-8.4-6.6-15-15-15h-44.8c-8.4,0-15,6.6-15,15
			v34.8c-15,3.8-29.3,9.7-42.3,17.6l-24.5-24.6c-5.9-5.9-15.4-5.9-21.3,0L443,172.9c-5.9,5.9-5.9,15.4,0,21.3l24.6,24.6
			c-7.9,13-13.8,27.2-17.6,42.3h-34.8c-8.4,0-15,6.6-15,15v22.3h97.2c0-57,46-103,103-103c57,0,102.9,46.1,102.9,103L800.2,298.6
			L800.2,298.6z"/>
		<path class="st2" d="M663.2,298.6c0-34.9-28.3-63.2-63.2-63.2s-63.2,28.3-63.2,63.2s28.3,63.2,63.2,63.2S663.2,333.6,663.2,298.6z
			"/>
		<path class="st2" d="M504.8,331.9c0-3.6-2.8-6.4-6.4-6.4h-55.2c-3.6,0-6.4,2.8-6.4,6.4v91.7h-26.1c-3.6,0-6.4,2.8-6.4,6.4v37.4
			c2.1-0.4,4.2-0.5,6.4-0.5c2.1,0,4.3,0.2,6.4,0.5v-31h26c3.6,0,6.4-2.8,6.4-6.4v-91.7h48.8C501.9,338.3,504.8,335.4,504.8,331.9z"
			/>
		
			<ellipse transform="matrix(6.651977e-02 -0.9978 0.9978 6.651977e-02 -120.7678 881.4998)" class="st2" cx="410.7" cy="505.3" rx="26.1" ry="26.1"/>
		<circle class="st2" cx="484.2" cy="505.4" r="26.1"/>
		<path class="st2" d="M515.6,364.1h-31.3c-3.6,0-6.4,2.8-6.4,6.4v96.7c2.1-0.4,4.2-0.5,6.4-0.5s4.3,0.2,6.4,0.5v-90.3h24.9
			c3.6,0,6.4-2.8,6.4-6.4S519,364.1,515.6,364.1z"/>
		<circle class="st2" cx="562" cy="505.4" r="26.1"/>
		<path class="st2" d="M568.4,467.1v-85.5c0-3.6-2.8-6.4-6.4-6.4s-6.4,2.8-6.4,6.4v85.5c2.1-0.4,4.2-0.5,6.4-0.5
			S566.2,466.8,568.4,467.1z"/>
		<path class="st2" d="M783,467.1c2.1-0.4,4.2-0.5,6.4-0.5c2.1,0,4.3,0.2,6.4,0.5v-37.4c0-3.6-2.8-6.4-6.4-6.4h-26v-91.7
			c0-3.6-2.8-6.4-6.4-6.4h-55.2c-3.6,0-6.4,2.8-6.4,6.4c0,3.6,2.8,6.4,6.4,6.4h48.8v91.7c0,3.6,2.8,6.4,6.4,6.4h26L783,467.1
			L783,467.1z"/>
		<circle class="st2" cx="789.2" cy="505.4" r="26.1"/>
		<circle class="st2" cx="715.8" cy="505.4" r="26.1"/>
		<path class="st2" d="M709.4,467.1c2.1-0.4,4.2-0.5,6.4-0.5c2.1,0,4.3,0.2,6.4,0.5v-96.7c0-3.6-2.8-6.4-6.4-6.4h-31.4
			c-3.6,0-6.4,2.8-6.4,6.4s2.8,6.4,6.4,6.4h24.9L709.4,467.1L709.4,467.1z"/>
		<circle class="st2" cx="638" cy="505.4" r="26.1"/>
		<path class="st2" d="M631.6,381.7v85.5c2.1-0.4,4.2-0.5,6.4-0.5c2.2,0,4.3,0.2,6.4,0.5v-85.5c0-3.6-2.8-6.4-6.4-6.4
			C634.6,375.3,631.6,378.2,631.6,381.7z"/>
	</g>
</g>
</svg>
