<?xml version="1.0" encoding="utf-8"?>
<!-- Generator: Adobe Illustrator 24.3.0, SVG Export Plug-In . SVG Version: 6.00 Build 0)  -->
<svg version="1.1" id="Layer_1" xmlns="http://www.w3.org/2000/svg" xmlns:xlink="http://www.w3.org/1999/xlink" x="0px" y="0px"
	 viewBox="0 0 512 512" style="enable-background:new 0 0 512 512;" xml:space="preserve">
<style type="text/css">
	.st0{fill:#2B79C2;}
	.st1{fill:#3B4652;}
</style>
<g>
	<path class="st0" d="M418.7,242.7v-18.2c0-6.8-5.4-12.2-12.2-12.2h-28.3c-3.1-12.2-7.9-23.8-14.3-34.4l20-20
		c4.8-4.8,4.8-12.5,0-17.3l-25.7-25.7c-4.8-4.8-12.5-4.8-17.3,0l-20,20c-10.6-6.4-22-11.2-34.4-14.3V92.3c0-6.8-5.4-12.2-12.2-12.2
		h-36.4c-6.8,0-12.2,5.4-12.2,12.2v28.3c-12.2,3.1-23.8,7.9-34.4,14.3l-19.9-20c-4.8-4.8-12.5-4.8-17.3,0l-25.7,25.6
		c-4.8,4.8-4.8,12.5,0,17.3l20,20c-6.4,10.6-11.2,22.1-14.3,34.4h-28.3c-6.8,0-12.2,5.4-12.2,12.2v18.1h79
		c0-46.3,37.4-83.7,83.7-83.7s83.6,37.5,83.6,83.7L418.7,242.7L418.7,242.7z"/>
	<path class="st1" d="M307.4,242.7c0-28.4-23-51.4-51.4-51.4s-51.4,23-51.4,51.4c0,28.4,23,51.4,51.4,51.4S307.4,271.1,307.4,242.7z
		"/>
	<path class="st1" d="M178.6,269.7c0-2.9-2.3-5.2-5.2-5.2h-44.9c-2.9,0-5.2,2.3-5.2,5.2v74.5h-21.2c-2.9,0-5.2,2.3-5.2,5.2v30.4
		c1.7-0.3,3.4-0.4,5.2-0.4c1.7,0,3.5,0.2,5.2,0.4v-25.2h21.1c2.9,0,5.2-2.3,5.2-5.2v-74.5h39.7C176.3,274.9,178.6,272.6,178.6,269.7
		z"/>
	
		<ellipse transform="matrix(6.652076e-02 -0.9978 0.9978 6.652076e-02 -314.4159 485.3063)" class="st1" cx="102.2" cy="410.7" rx="21.2" ry="21.2"/>
	<circle class="st1" cx="161.9" cy="410.7" r="21.2"/>
	<path class="st1" d="M187.4,295.9H162c-2.9,0-5.2,2.3-5.2,5.2v78.6c1.7-0.3,3.4-0.4,5.2-0.4s3.5,0.2,5.2,0.4v-73.4h20.2
		c2.9,0,5.2-2.3,5.2-5.2S190.2,295.9,187.4,295.9z"/>
	<circle class="st1" cx="225.1" cy="410.7" r="21.2"/>
	<path class="st1" d="M230.3,379.6v-69.5c0-2.9-2.3-5.2-5.2-5.2c-2.9,0-5.2,2.3-5.2,5.2v69.5c1.7-0.3,3.4-0.4,5.2-0.4
		C226.9,379.2,228.5,379.4,230.3,379.6z"/>
	<path class="st1" d="M404.7,379.6c1.7-0.3,3.4-0.4,5.2-0.4c1.7,0,3.5,0.2,5.2,0.4v-30.4c0-2.9-2.3-5.2-5.2-5.2h-21.1v-74.5
		c0-2.9-2.3-5.2-5.2-5.2h-44.9c-2.9,0-5.2,2.3-5.2,5.2c0,2.9,2.3,5.2,5.2,5.2h39.7v74.5c0,2.9,2.3,5.2,5.2,5.2h21.1V379.6z"/>
	<circle class="st1" cx="409.8" cy="410.7" r="21.2"/>
	<circle class="st1" cx="350.1" cy="410.7" r="21.2"/>
	<path class="st1" d="M344.9,379.6c1.7-0.3,3.4-0.4,5.2-0.4c1.7,0,3.5,0.2,5.2,0.4v-78.6c0-2.9-2.3-5.2-5.2-5.2h-25.5
		c-2.9,0-5.2,2.3-5.2,5.2s2.3,5.2,5.2,5.2h20.2L344.9,379.6L344.9,379.6z"/>
	<circle class="st1" cx="286.9" cy="410.7" r="21.2"/>
	<path class="st1" d="M281.7,310.2v69.5c1.7-0.3,3.4-0.4,5.2-0.4s3.5,0.2,5.2,0.4v-69.5c0-2.9-2.3-5.2-5.2-5.2
		C284.1,305,281.7,307.4,281.7,310.2z"/>
</g>
</svg>
